<?xml version="1.0" encoding="UTF-8"?>
<svg id="Layer_2" data-name="Layer 2" xmlns="http://www.w3.org/2000/svg" viewBox="0 0 698.55 350.7">
  <defs>
    <style>
      .cls-1 {
        fill: #fff;
      }

      .cls-2 {
        fill: #ed7f23;
      }

      .cls-3 {
        fill: #1765a4;
      }
    </style>
  </defs>
  <g id="Layer_1-2" data-name="Layer 1">
    <g id="Logo">
      <g id="CuTe">
        <g>
          <g id="Logo-2" data-name="Logo">
            <g id="CuTe-2" data-name="CuTe">
              <path class="cls-1" d="m691.2,192.87c-5.11,11.96-11.84,19.57-18.62,24.36.74,7.12-.4,14.49-3.43,21.58-3.49,8.18-9.66,15.59-18.32,21.99-7.4,5.47-16.41,9.63-26.78,12.36-7.34,1.93-15.33,2.91-23.86,2.91-3,0-6.07-.12-9.2-.36-3.5-.27-7.05-.74-10.65-1.41.1,1.09.15,2.25.15,3.44v34.83c0,5.51-.62,10.27-1.9,14.59-1.57,5.32-4.23,9.87-7.9,13.56-3.67,3.67-8.29,6.35-13.75,7.99-4.5,1.35-9.63,1.99-15.67,1.99s-11.29-.88-16.17-2.61c-5.47-1.95-9.98-4.73-13.37-8.27-2.52-2.61-4.15-5.26-5.19-7.78-1.93.57-3.99.88-6.1.88-5.97,0-11.42-2.36-15.39-6.65-4.01,4.29-9.51,6.65-15.49,6.65-5.02,0-9.68-1.69-13.4-4.83-3.76,3.12-8.46,4.83-13.51,4.83s-9.63-1.67-13.32-4.74c-3.7,3.08-8.34,4.74-13.36,4.74-5.98,0-11.43-2.36-15.4-6.65-4.01,4.29-9.49,6.65-15.49,6.65s-11.63-2.49-15.65-7.01c-2.13-2.42-4.62-6.42-5.29-12.33-.68,6.19-3.36,10.29-5.65,12.73-4.01,4.27-9.48,6.61-15.43,6.61-4.5,0-8.7-1.36-12.22-3.89-3.57,2.55-7.74,3.89-12.18,3.89-2.67,0-6.32-.56-10.1-2.83-4.53,1.88-9.54,2.83-14.89,2.83s-10.63-1.19-15.14-3.55c-2.48-1.29-4.69-2.86-6.63-4.69-.16.15-.33.28-.49.4-3.05,2.38-6.72,4.3-10.92,5.71-4.16,1.41-8.8,2.13-13.81,2.13-10.77,0-18.48-3.2-23.8-6.91-.18.18-.38.36-.57.53-2.72,2.41-7.53,5.28-14.93,5.28h-31.49c-8.78,0-14.05-3.49-16.95-6.41-2.84-2.88-6.25-8.13-6.25-16.79v-38.26c-7.51,1.28-15.42,1.91-23.66,1.91-13.02,0-25.23-1.3-36.29-3.87-11.89-2.75-22.95-7.16-32.86-13.11-9.99-6.01-19.2-13.87-27.33-23.38l-.17-.19c-6.99-8.33-13.03-17.73-17.94-27.96-4.85-10.11-8.52-21-10.92-32.36-2.33-11.03-3.51-22.81-3.51-34.99,0-19.99,3.04-38.39,9.04-54.73,6.25-16.95,15.42-31.77,27.24-44.02,11.85-12.28,25.94-21.77,41.89-28.2C93.73,3.19,110.46,0,127.91,0c21.31,0,40.84,4.45,58.04,13.23,17.28,8.83,30.96,20.25,40.69,33.98,4.24,5.99,7.63,12.01,10.19,18.04,8.05-5.59,17.77-8.61,28.22-8.61,14.1,0,26.95,5.47,36.2,15.4,7.14,7.71,11.45,17.36,12.89,28.8,1.45-11.44,5.75-21.09,12.86-28.76,5.3-5.69,11.74-9.92,18.92-12.49-.43-2.63-.64-5.31-.64-8.06,0-14.15,5.69-26.81,16-35.63,9.22-7.9,21.1-11.91,35.33-11.91h131.69c14.9,0,27.13,4.24,36.37,12.61,9.82,8.91,15.22,21.31,15.22,34.94,0,1.97-.11,3.93-.34,5.84,4.72-.56,9.53-.75,14.43-.6,13.83.43,27.94,3.67,41.91,9.63,18.67,7.99,33.49,19.31,44.05,33.64,10.66,14.48,16.8,30.36,18.25,47.19,1.39,16.21-.95,31.56-6.97,45.64Z"/>
            </g>
          </g>
          <path class="cls-2" d="m528.27,68.55h-45.2v148.57c0,8.56-1.91,14.9-5.72,19.04-3.81,4.14-8.74,6.21-14.79,6.21s-11.14-2.09-15-6.28c-3.86-4.18-5.79-10.51-5.79-18.97V68.55h-45.2c-7.07,0-12.32-1.56-15.76-4.67-3.44-3.11-5.16-7.23-5.16-12.35s1.79-9.49,5.37-12.55c3.58-3.07,8.76-4.6,15.55-4.6h131.69c7.16,0,12.48,1.58,15.97,4.74,3.49,3.16,5.23,7.3,5.23,12.42s-1.77,9.23-5.3,12.35c-3.54,3.12-8.84,4.67-15.9,4.67Z"/>
          <path class="cls-2" d="m625.4,189.64l-68.5-29.26c-3.31,7.99-4.71,15.69-4.18,23.09.53,7.41,2.72,13.75,6.58,19.04,3.86,5.29,8.91,9.27,15.15,11.93,4.19,1.79,8.23,2.93,12.11,3.43,3.88.5,7.9.39,12.04-.32,4.14-.71,8.1-1.67,11.86-2.9,3.76-1.22,8.7-2.96,14.81-5.2,2.45-.77,5.35-.45,8.68.98,3.59,1.53,6.08,3.76,7.46,6.68,1.38,2.92,1.31,6.17-.23,9.76-1.35,3.17-4.17,6.33-8.46,9.51-4.29,3.17-9.77,5.64-16.43,7.39-6.67,1.76-14.33,2.3-22.99,1.63-8.67-.67-17.92-3.1-27.75-7.3-22.49-9.61-37.24-23.49-44.25-41.65-7.01-18.16-5.82-38.23,3.57-60.21,4.42-10.35,10.06-19.29,16.92-26.83,6.86-7.54,14.59-13.21,23.2-17.02,8.6-3.81,17.95-5.56,28.03-5.24,10.08.31,20.38,2.71,30.9,7.21,13.68,5.84,24.19,13.74,31.51,23.7,7.33,9.96,11.47,20.55,12.44,31.78.97,11.23-.58,21.6-4.63,31.09-3.76,8.81-8.72,13.44-14.88,13.89-6.16.45-13.82-1.28-22.97-5.18Zm-60.01-49.15l63.5,27.12c4.26-12.34,4.86-22.68,1.79-31.01-3.06-8.34-9.17-14.46-18.32-18.37-8.72-3.73-17.17-3.77-25.35-.13-8.18,3.64-15.39,11.1-21.62,22.39Z"/>
        </g>
        <g>
          <path class="cls-2" d="m381.93,109.76v110.35c0,7.25-1.65,12.69-4.95,16.31-3.31,3.62-7.56,5.45-12.77,5.45s-9.51-1.88-12.9-5.65c-3.4-3.77-5.09-9.04-5.09-15.83v-4.89c-4.56,5.76-9.35,10.6-14.37,14.5-5.02,3.91-10.52,6.82-16.46,8.72-5.96,1.91-12.74,2.87-20.36,2.87-9.22,0-17.47-1.91-24.76-5.73-7.31-3.81-12.95-9.07-16.95-15.76-4.74-8.1-7.11-19.72-7.11-34.88v-75.47c0-7.62,1.71-13.32,5.15-17.08,3.44-3.77,8-5.65,13.68-5.65s10.41,1.91,13.94,5.71c3.54,3.82,5.3,9.49,5.3,17.02v60.97c0,8.83.74,16.24,2.24,22.25,1.48,5.99,4.16,10.7,8.01,14.09,3.87,3.39,9.09,5.09,15.69,5.09s12.46-1.91,18.14-5.73c5.68-3.81,9.81-8.79,12.41-14.93,2.14-5.39,3.21-17.2,3.21-35.43v-46.32c0-7.53,1.76-13.2,5.3-17.02,3.54-3.81,8.15-5.71,13.81-5.71s10.24,1.88,13.68,5.65c3.44,3.76,5.15,9.46,5.15,17.08Z"/>
          <path class="cls-2" d="m207.42,160.96c3.53,3.44,5.3,7.72,5.3,12.84,0,6.52-1.6,13.56-4.81,21.13-3.21,7.59-8.25,15.03-15.14,22.32-6.88,7.31-15.67,13.24-26.37,17.79-10.7,4.56-23.16,6.84-37.38,6.84-10.8,0-20.61-1.03-29.43-3.08-8.84-2.04-16.86-5.23-24.07-9.56-7.21-4.33-13.83-10.02-19.88-17.08-5.4-6.42-9.99-13.6-13.81-21.55s-6.67-16.44-8.57-25.46c-1.91-9.02-2.87-18.6-2.87-28.74,0-16.46,2.39-31.21,7.18-44.23,4.79-13.02,11.65-24.16,20.58-33.41,8.92-9.25,19.39-16.29,31.39-21.13,11.99-4.84,24.78-7.26,38.36-7.26,16.56,0,31.29,3.31,44.23,9.91,12.92,6.6,22.82,14.76,29.71,24.48,6.88,9.71,10.32,18.89,10.32,27.55,0,4.74-1.68,8.92-5.02,12.56-3.36,3.62-7.4,5.43-12.15,5.43-5.3,0-9.28-1.25-11.93-3.77-2.65-2.5-5.6-6.83-8.85-12.97-5.4-10.14-11.74-17.71-19.05-22.73-7.29-5.02-16.29-7.54-26.99-7.54-17.02,0-30.58,6.47-40.67,19.39-10.09,12.92-15.14,31.29-15.14,55.11,0,15.9,2.24,29.13,6.7,39.68,4.46,10.55,10.78,18.44,18.98,23.65,8.18,5.22,17.76,7.82,28.73,7.82,11.9,0,21.98-2.95,30.21-8.86,8.23-5.91,14.43-14.58,18.61-26.02,1.77-5.4,3.95-9.79,6.56-13.18,2.6-3.4,6.78-5.09,12.55-5.09,4.94,0,9.17,1.71,12.7,5.15Z"/>
        </g>
      </g>
      <g id="Learning">
        <path class="cls-3" d="m180.92,259.03v46.87h26.44c2.11,0,3.73.51,4.85,1.54,1.13,1.03,1.69,2.31,1.69,3.87s-.56,2.86-1.67,3.84c-1.11.98-2.74,1.47-4.88,1.47h-31.5c-2.84,0-4.88-.63-6.13-1.89-1.24-1.26-1.87-3.29-1.87-6.11v-49.59c0-2.64.59-4.61,1.78-5.93s2.75-1.98,4.68-1.98,3.55.65,4.77,1.96c1.22,1.3,1.82,3.29,1.82,5.95Z"/>
        <path class="cls-3" d="m258,296.28h-23.46c.03,2.72.58,5.13,1.65,7.2,1.07,2.08,2.49,3.65,4.26,4.7,1.77,1.05,3.73,1.58,5.86,1.58,1.43,0,2.75-.17,3.93-.51,1.19-.34,2.34-.86,3.45-1.58,1.11-.72,2.14-1.49,3.07-2.31.94-.82,2.15-1.93,3.65-3.34.61-.53,1.49-.79,2.64-.79,1.23,0,2.23.34,2.99,1.01.76.67,1.14,1.63,1.14,2.86,0,1.08-.43,2.35-1.27,3.8-.85,1.45-2.13,2.84-3.84,4.17-1.71,1.33-3.87,2.44-6.46,3.32-2.59.88-5.57,1.32-8.94,1.32-7.7,0-13.69-2.2-17.97-6.59-4.28-4.39-6.41-10.35-6.41-17.88,0-3.54.53-6.83,1.58-9.86,1.05-3.03,2.59-5.63,4.61-7.8,2.02-2.17,4.51-3.83,7.47-4.99,2.96-1.16,6.24-1.73,9.84-1.73,4.69,0,8.7.99,12.06,2.96,3.35,1.98,5.86,4.53,7.53,7.67,1.67,3.13,2.5,6.33,2.5,9.58,0,3.02-.86,4.97-2.59,5.86-1.73.89-4.16,1.34-7.29,1.34Zm-23.46-6.81h21.74c-.29-4.1-1.4-7.17-3.32-9.2-1.92-2.03-4.44-3.05-7.58-3.05s-5.44,1.03-7.36,3.1c-1.92,2.06-3.08,5.12-3.49,9.16Z"/>
        <path class="cls-3" d="m311.17,310.95c-2.9,2.26-5.7,3.95-8.41,5.07-2.71,1.13-5.75,1.69-9.11,1.69-3.07,0-5.78-.61-8.1-1.82-2.33-1.22-4.12-2.86-5.38-4.94-1.26-2.08-1.89-4.33-1.89-6.76,0-3.28,1.04-6.08,3.12-8.39,2.08-2.31,4.93-3.87,8.57-4.66.76-.18,2.65-.57,5.67-1.19,3.02-.61,5.6-1.18,7.75-1.69,2.15-.51,4.49-1.13,7.01-1.87-.15-3.16-.78-5.48-1.91-6.96-1.13-1.48-3.46-2.22-7.01-2.22-3.05,0-5.34.43-6.87,1.27-1.54.85-2.86,2.12-3.95,3.82-1.1,1.7-1.87,2.82-2.33,3.36-.45.54-1.43.81-2.92.81-1.35,0-2.51-.43-3.49-1.3-.98-.86-1.47-1.97-1.47-3.32,0-2.11.75-4.16,2.24-6.15,1.49-1.99,3.82-3.63,6.98-4.92,3.16-1.29,7.1-1.93,11.82-1.93,5.27,0,9.41.62,12.43,1.87,3.02,1.24,5.15,3.21,6.39,5.91,1.24,2.69,1.87,6.27,1.87,10.72,0,2.81,0,5.2-.02,7.16-.01,1.96-.04,4.14-.07,6.55,0,2.26.37,4.61,1.12,7.05.75,2.45,1.12,4.02,1.12,4.72,0,1.23-.58,2.35-1.74,3.36-1.16,1.01-2.47,1.52-3.93,1.52-1.23,0-2.45-.58-3.65-1.73-1.2-1.16-2.47-2.83-3.82-5.03Zm-.79-17.35c-1.76.64-4.31,1.32-7.67,2.04-3.35.72-5.67,1.25-6.96,1.58-1.29.34-2.52,1-3.69,1.98-1.17.98-1.76,2.35-1.76,4.11s.69,3.36,2.06,4.63c1.38,1.28,3.18,1.91,5.4,1.91,2.37,0,4.56-.52,6.57-1.56,2.01-1.04,3.48-2.38,4.41-4.02,1.08-1.82,1.63-4.8,1.63-8.96v-1.71Z"/>
        <path class="cls-3" d="m349.11,300.41v10.02c0,2.43-.57,4.25-1.71,5.47-1.14,1.21-2.59,1.82-4.35,1.82s-3.15-.61-4.26-1.84c-1.11-1.23-1.67-3.05-1.67-5.45v-33.38c0-5.39,1.95-8.08,5.84-8.08,1.99,0,3.43.63,4.3,1.89.88,1.26,1.36,3.12,1.45,5.58,1.43-2.46,2.91-4.32,4.42-5.58,1.51-1.26,3.52-1.89,6.04-1.89s4.96.63,7.34,1.89c2.37,1.26,3.56,2.93,3.56,5.01,0,1.47-.5,2.67-1.51,3.62-1.01.95-2.1,1.43-3.27,1.43-.44,0-1.5-.27-3.18-.81-1.69-.54-3.17-.81-4.46-.81-1.76,0-3.19.46-4.3,1.38-1.11.92-1.98,2.29-2.59,4.11-.61,1.82-1.04,3.98-1.27,6.48-.24,2.51-.35,5.56-.35,9.16Z"/>
        <path class="cls-3" d="m390.38,275.59v1.45c2.11-2.78,4.42-4.82,6.92-6.13,2.51-1.3,5.38-1.96,8.63-1.96s5.99.69,8.48,2.06c2.49,1.38,4.35,3.32,5.58,5.84.79,1.47,1.3,3.05,1.54,4.74.23,1.7.35,3.87.35,6.5v22.32c0,2.4-.55,4.22-1.65,5.45-1.1,1.23-2.53,1.84-4.28,1.84s-3.24-.63-4.35-1.89c-1.11-1.26-1.67-3.06-1.67-5.4v-19.99c0-3.95-.55-6.98-1.65-9.07-1.1-2.09-3.29-3.14-6.57-3.14-2.14,0-4.09.64-5.84,1.91-1.76,1.27-3.05,3.02-3.87,5.25-.59,1.79-.88,5.13-.88,10.02v15.02c0,2.43-.56,4.25-1.69,5.47-1.13,1.21-2.59,1.82-4.37,1.82s-3.15-.63-4.26-1.89c-1.11-1.26-1.67-3.06-1.67-5.4v-34.66c0-2.28.5-3.99,1.49-5.12.99-1.13,2.36-1.69,4.09-1.69,1.05,0,2.01.25,2.86.75.85.5,1.53,1.25,2.04,2.24.51,1,.77,2.21.77,3.65Z"/>
        <path class="cls-3" d="m442.76,263.38c-1.67,0-3.1-.51-4.28-1.54-1.19-1.02-1.78-2.47-1.78-4.35,0-1.7.61-3.1,1.82-4.2,1.22-1.1,2.63-1.65,4.24-1.65s2.93.5,4.13,1.49c1.2,1,1.8,2.45,1.8,4.35s-.59,3.29-1.76,4.33c-1.17,1.04-2.56,1.56-4.17,1.56Zm5.93,12.39v34.66c0,2.4-.57,4.22-1.71,5.45s-2.59,1.84-4.35,1.84-3.18-.63-4.28-1.89c-1.1-1.26-1.65-3.06-1.65-5.4v-34.31c0-2.37.55-4.16,1.65-5.36,1.1-1.2,2.53-1.8,4.28-1.8s3.21.6,4.35,1.8c1.14,1.2,1.71,2.87,1.71,5.01Z"/>
        <path class="cls-3" d="m474.85,275.59v1.45c2.11-2.78,4.42-4.82,6.92-6.13,2.51-1.3,5.38-1.96,8.63-1.96s5.99.69,8.48,2.06c2.49,1.38,4.35,3.32,5.58,5.84.79,1.47,1.3,3.05,1.54,4.74.23,1.7.35,3.87.35,6.5v22.32c0,2.4-.55,4.22-1.65,5.45-1.1,1.23-2.53,1.84-4.28,1.84s-3.24-.63-4.35-1.89c-1.11-1.26-1.67-3.06-1.67-5.4v-19.99c0-3.95-.55-6.98-1.65-9.07-1.1-2.09-3.29-3.14-6.57-3.14-2.14,0-4.09.64-5.84,1.91-1.76,1.27-3.05,3.02-3.87,5.25-.59,1.79-.88,5.13-.88,10.02v15.02c0,2.43-.56,4.25-1.69,5.47-1.13,1.21-2.59,1.82-4.37,1.82s-3.15-.63-4.26-1.89c-1.11-1.26-1.67-3.06-1.67-5.4v-34.66c0-2.28.5-3.99,1.49-5.12.99-1.13,2.36-1.69,4.09-1.69,1.05,0,2.01.25,2.86.75.85.5,1.53,1.25,2.04,2.24.51,1,.77,2.21.77,3.65Z"/>
        <path class="cls-3" d="m565.28,277.74v34.83c0,3.98-.43,7.41-1.27,10.28-.85,2.87-2.21,5.24-4.09,7.12-1.87,1.87-4.33,3.26-7.36,4.17-3.03.91-6.8,1.36-11.31,1.36-4.13,0-7.82-.58-11.07-1.74-3.25-1.16-5.75-2.65-7.51-4.48-1.76-1.83-2.64-3.71-2.64-5.64,0-1.47.5-2.66,1.49-3.58.99-.92,2.2-1.38,3.6-1.38,1.76,0,3.29.78,4.61,2.33.64.79,1.31,1.59,2,2.39.69.81,1.45,1.49,2.28,2.07.83.57,1.84.99,3.01,1.27,1.17.28,2.52.42,4.04.42,3.1,0,5.51-.43,7.23-1.3,1.71-.86,2.91-2.07,3.6-3.62.69-1.55,1.09-3.21,1.21-4.99.12-1.77.2-4.62.26-8.54-1.84,2.58-3.97,4.54-6.39,5.89-2.41,1.35-5.29,2.02-8.63,2.02-4.01,0-7.52-1.02-10.52-3.07-3-2.05-5.31-4.92-6.92-8.61-1.61-3.69-2.42-7.95-2.42-12.78,0-3.6.49-6.85,1.47-9.75.98-2.9,2.38-5.34,4.19-7.34,1.82-1.99,3.91-3.49,6.28-4.5,2.37-1.01,4.98-1.52,7.82-1.52,3.4,0,6.34.65,8.83,1.96,2.49,1.3,4.8,3.35,6.94,6.13v-1.63c0-2.08.51-3.69,1.54-4.83,1.02-1.14,2.34-1.71,3.95-1.71,2.31,0,3.85.75,4.61,2.26.76,1.51,1.14,3.68,1.14,6.52Zm-34.75,15.2c0,4.86,1.06,8.54,3.18,11.03,2.12,2.49,4.87,3.73,8.24,3.73,1.99,0,3.87-.53,5.64-1.6,1.77-1.07,3.21-2.68,4.33-4.83,1.11-2.15,1.67-4.77,1.67-7.84,0-4.89-1.08-8.7-3.23-11.42-2.15-2.72-4.99-4.09-8.5-4.09s-6.17,1.3-8.24,3.91c-2.06,2.61-3.1,6.31-3.1,11.11Z"/>
      </g>
    </g>
  </g>
</svg>